<svg width="112" height="96" viewBox="0 0 112 96" fill="none" xmlns="http://www.w3.org/2000/svg">
<path d="M105 0H7C3.1 0 0 3.175 0 7.075V88.925C0 92.825 3.1 96 7 96H105C108.9 96 112 92.825 112 88.925V7.075C112 3.175 108.9 0 105 0ZM79.225 49.425C78.475 48.55 77.325 47.875 76.025 47.875C74.75 47.875 73.85 48.475 72.825 49.3L68.15 53.25C67.175 53.95 66.4 54.425 65.275 54.425C64.2 54.425 63.225 54.025 62.525 53.4C62.275 53.175 61.825 52.75 61.45 52.375L48 37.825C47 36.675 45.5 35.95 43.825 35.95C42.15 35.95 40.6 36.775 39.625 37.9L8 76.05V10.925C8.25 9.225 9.575 8 11.275 8H100.7C102.425 8 103.825 9.275 103.925 11L104 76.1L79.225 49.425Z" fill="black"/>
</svg>
