<svg width="22" height="24" viewBox="0 0 22 24" fill="none" xmlns="http://www.w3.org/2000/svg">
<path d="M17.2078 20.2753L22 17.8766L4.81168 9.29609L0.012987 11.6883L17.2013 20.2753H17.2078ZM11 23.3766L15.813 20.9766L4.81298 15.4766L0.0337662 17.8766L11 23.3766ZM21.987 11.6883L17.1883 14.0805L12.4026 11.6883L17.1948 9.29609L21.987 11.6883ZM6.1948 2.40649L11.0052 0L15.8104 2.40649L11 4.7987L6.1948 2.4V2.40649ZM4.7922 3.10129L0 5.49999L11 10.9935L15.7922 8.60129L4.7922 3.10779V3.10129ZM17.1883 7.90648L21.9935 5.49999L17.2013 3.11428L12.3883 5.51428L17.1883 7.90648Z" fill="black"/>
</svg>
