<svg width="517" height="127" viewBox="0 0 517 127" fill="none" xmlns="http://www.w3.org/2000/svg">
<g clip-path="url(#clip0_1_2)">
<rect width="517" height="127" fill="white"/>
<g filter="url(#filter0_i_1_2)">
<line x1="486" y1="83" x2="496" y2="83" stroke="#6C348D" stroke-width="10"/>
</g>
<g filter="url(#filter1_i_1_2)">
<line x1="13" y1="97" x2="491" y2="97" stroke="#6C348D" stroke-width="10"/>
</g>
<g filter="url(#filter2_i_1_2)">
<path d="M34.216 99.44C28.712 99.44 24.168 98.032 20.584 95.216C17.032 92.4 14.504 88.592 13 83.792L25.864 80.72C26.152 82.48 27.08 84.016 28.648 85.328C30.216 86.608 31.88 87.248 33.64 87.248C34.856 87.248 36.152 86.912 37.528 86.24C38.936 85.568 39.944 84.496 40.552 83.024C40.936 82.096 41.16 80.96 41.224 79.616C41.288 78.272 41.32 76.72 41.32 74.96V28.88H54.568V74.96C54.568 77.168 54.552 79.088 54.52 80.72C54.52 82.352 54.36 83.888 54.04 85.328C53.752 86.736 53.16 88.208 52.264 89.744C50.312 93.136 47.768 95.6 44.632 97.136C41.496 98.672 38.024 99.44 34.216 99.44ZM80.7468 99.44C75.5308 99.44 70.9548 98.272 67.0187 95.936C63.0827 93.6 60.0107 90.384 57.8027 86.288C55.6267 82.16 54.5387 77.424 54.5387 72.08C54.5387 66.672 55.6587 61.92 57.8987 57.824C60.1388 53.696 63.2268 50.48 67.1628 48.176C71.0988 45.872 75.6268 44.72 80.7468 44.72C85.9628 44.72 90.5388 45.888 94.4748 48.224C98.4428 50.56 101.531 53.792 103.739 57.92C105.947 62.016 107.051 66.736 107.051 72.08C107.051 77.456 105.931 82.208 103.691 86.336C101.483 90.432 98.3948 93.648 94.4268 95.984C90.4908 98.288 85.9308 99.44 80.7468 99.44ZM80.7468 87.248C84.9388 87.248 88.0588 85.84 90.1068 83.024C92.1868 80.176 93.2268 76.528 93.2268 72.08C93.2268 67.472 92.1708 63.792 90.0588 61.04C87.9788 58.288 84.8748 56.912 80.7468 56.912C77.8988 56.912 75.5627 57.552 73.7388 58.832C71.9148 60.112 70.5547 61.888 69.6588 64.16C68.7948 66.432 68.3628 69.072 68.3628 72.08C68.3628 76.72 69.4028 80.416 71.4828 83.168C73.5948 85.888 76.6828 87.248 80.7468 87.248ZM141.414 98V73.52C141.414 72.336 141.35 70.832 141.222 69.008C141.094 67.152 140.694 65.296 140.022 63.44C139.35 61.584 138.246 60.032 136.71 58.784C135.206 57.536 133.062 56.912 130.278 56.912C129.158 56.912 127.958 57.088 126.678 57.44C125.398 57.792 124.198 58.48 123.078 59.504C121.958 60.496 121.03 61.968 120.294 63.92C119.59 65.872 119.238 68.464 119.238 71.696L111.75 68.144C111.75 64.048 112.582 60.208 114.246 56.624C115.91 53.04 118.406 50.144 121.734 47.936C125.094 45.728 129.318 44.624 134.406 44.624C138.47 44.624 141.782 45.312 144.342 46.688C146.902 48.064 148.886 49.808 150.294 51.92C151.734 54.032 152.758 56.24 153.366 58.544C153.974 60.816 154.342 62.896 154.47 64.784C154.598 66.672 154.662 68.048 154.662 68.912V98H141.414ZM105.99 98V28.88H117.606V64.4H119.238V98H105.99ZM190.926 98V73.52C190.926 72.336 190.862 70.832 190.734 69.008C190.606 67.152 190.206 65.296 189.534 63.44C188.862 61.584 187.758 60.032 186.222 58.784C184.718 57.536 182.574 56.912 179.79 56.912C178.67 56.912 177.47 57.088 176.19 57.44C174.91 57.792 173.71 58.48 172.59 59.504C171.47 60.496 170.542 61.968 169.806 63.92C169.102 65.872 168.75 68.464 168.75 71.696L161.262 68.144C161.262 64.048 162.094 60.208 163.758 56.624C165.422 53.04 167.918 50.144 171.246 47.936C174.606 45.728 178.83 44.624 183.918 44.624C187.982 44.624 191.294 45.312 193.854 46.688C196.414 48.064 198.398 49.808 199.806 51.92C201.246 54.032 202.27 56.24 202.878 58.544C203.486 60.816 203.854 62.896 203.982 64.784C204.11 66.672 204.174 68.048 204.174 68.912V98H190.926ZM155.502 98V46.16H167.118V63.344H168.75V98H155.502ZM221.466 98V28.88H234.522V85.808H264.282V98H221.466ZM261.884 38.96V27.44H274.94V38.96H261.884ZM261.884 98V46.16H274.94V98H261.884ZM313.138 98V73.52C313.138 72.336 313.074 70.832 312.946 69.008C312.818 67.152 312.418 65.296 311.746 63.44C311.074 61.584 309.97 60.032 308.434 58.784C306.93 57.536 304.786 56.912 302.002 56.912C300.882 56.912 299.682 57.088 298.402 57.44C297.122 57.792 295.922 58.48 294.802 59.504C293.682 60.496 292.754 61.968 292.018 63.92C291.314 65.872 290.962 68.464 290.962 71.696L283.474 68.144C283.474 64.048 284.306 60.208 285.97 56.624C287.634 53.04 290.13 50.144 293.458 47.936C296.818 45.728 301.042 44.624 306.13 44.624C310.194 44.624 313.506 45.312 316.066 46.688C318.626 48.064 320.61 49.808 322.018 51.92C323.458 54.032 324.482 56.24 325.09 58.544C325.698 60.816 326.066 62.896 326.194 64.784C326.322 66.672 326.386 68.048 326.386 68.912V98H313.138ZM277.714 98V46.16H289.33V63.344H290.962V98H277.714ZM347.408 99.44C342.64 99.44 338.464 98.24 334.88 95.84C331.296 93.44 328.496 90.176 326.48 86.048C324.496 81.92 323.504 77.264 323.504 72.08C323.504 66.8 324.512 62.112 326.528 58.016C328.576 53.888 331.44 50.64 335.12 48.272C338.8 45.904 343.12 44.72 348.08 44.72C353.008 44.72 357.152 45.92 360.512 48.32C363.872 50.72 366.416 53.984 368.144 58.112C369.872 62.24 370.736 66.896 370.736 72.08C370.736 77.264 369.856 81.92 368.096 86.048C366.368 90.176 363.776 93.44 360.32 95.84C356.864 98.24 352.56 99.44 347.408 99.44ZM349.52 87.824C352.432 87.824 354.752 87.168 356.48 85.856C358.24 84.544 359.504 82.704 360.272 80.336C361.04 77.968 361.424 75.216 361.424 72.08C361.424 68.944 361.04 66.192 360.272 63.824C359.504 61.456 358.272 59.616 356.576 58.304C354.912 56.992 352.72 56.336 350 56.336C347.088 56.336 344.688 57.056 342.8 58.496C340.944 59.904 339.568 61.808 338.672 64.208C337.776 66.576 337.328 69.2 337.328 72.08C337.328 74.992 337.76 77.648 338.624 80.048C339.488 82.416 340.816 84.304 342.608 85.712C344.4 87.12 346.704 87.824 349.52 87.824ZM361.424 98V62.48H359.792V28.88H372.944V98H361.424ZM398.192 99.44C392.976 99.44 388.4 98.272 384.464 95.936C380.528 93.6 377.456 90.384 375.248 86.288C373.072 82.16 371.984 77.424 371.984 72.08C371.984 66.672 373.104 61.92 375.344 57.824C377.584 53.696 380.672 50.48 384.608 48.176C388.544 45.872 393.072 44.72 398.192 44.72C403.408 44.72 407.984 45.888 411.92 48.224C415.888 50.56 418.976 53.792 421.184 57.92C423.392 62.016 424.496 66.736 424.496 72.08C424.496 77.456 423.376 82.208 421.136 86.336C418.928 90.432 415.84 93.648 411.872 95.984C407.936 98.288 403.376 99.44 398.192 99.44ZM398.192 87.248C402.384 87.248 405.504 85.84 407.552 83.024C409.632 80.176 410.672 76.528 410.672 72.08C410.672 67.472 409.616 63.792 407.504 61.04C405.424 58.288 402.32 56.912 398.192 56.912C395.344 56.912 393.008 57.552 391.184 58.832C389.36 60.112 388 61.888 387.104 64.16C386.24 66.432 385.808 69.072 385.808 72.08C385.808 76.72 386.848 80.416 388.928 83.168C391.04 85.888 394.128 87.248 398.192 87.248ZM458.859 98V73.52C458.859 72.336 458.795 70.832 458.667 69.008C458.539 67.152 458.139 65.296 457.467 63.44C456.795 61.584 455.691 60.032 454.155 58.784C452.651 57.536 450.507 56.912 447.723 56.912C446.603 56.912 445.403 57.088 444.123 57.44C442.843 57.792 441.643 58.48 440.523 59.504C439.403 60.496 438.475 61.968 437.739 63.92C437.035 65.872 436.683 68.464 436.683 71.696L429.195 68.144C429.195 64.048 430.027 60.208 431.691 56.624C433.355 53.04 435.851 50.144 439.179 47.936C442.539 45.728 446.763 44.624 451.851 44.624C455.915 44.624 459.227 45.312 461.787 46.688C464.347 48.064 466.331 49.808 467.739 51.92C469.179 54.032 470.203 56.24 470.811 58.544C471.419 60.816 471.787 62.896 471.915 64.784C472.043 66.672 472.107 68.048 472.107 68.912V98H458.859ZM423.435 98V46.16H435.051V63.344H436.683V98H423.435Z" fill="#6C348D"/>
</g>
<mask id="mask0_1_2" style="mask-type:alpha" maskUnits="userSpaceOnUse" x="13" y="27" width="460" height="73">
<path d="M34.216 99.44C28.712 99.44 24.168 98.032 20.584 95.216C17.032 92.4 14.504 88.592 13 83.792L25.864 80.72C26.152 82.48 27.08 84.016 28.648 85.328C30.216 86.608 31.88 87.248 33.64 87.248C34.856 87.248 36.152 86.912 37.528 86.24C38.936 85.568 39.944 84.496 40.552 83.024C40.936 82.096 41.16 80.96 41.224 79.616C41.288 78.272 41.32 76.72 41.32 74.96V28.88H54.568V74.96C54.568 77.168 54.552 79.088 54.52 80.72C54.52 82.352 54.36 83.888 54.04 85.328C53.752 86.736 53.16 88.208 52.264 89.744C50.312 93.136 47.768 95.6 44.632 97.136C41.496 98.672 38.024 99.44 34.216 99.44ZM80.7468 99.44C75.5308 99.44 70.9548 98.272 67.0187 95.936C63.0827 93.6 60.0107 90.384 57.8027 86.288C55.6267 82.16 54.5387 77.424 54.5387 72.08C54.5387 66.672 55.6587 61.92 57.8987 57.824C60.1388 53.696 63.2268 50.48 67.1628 48.176C71.0988 45.872 75.6268 44.72 80.7468 44.72C85.9628 44.72 90.5388 45.888 94.4748 48.224C98.4428 50.56 101.531 53.792 103.739 57.92C105.947 62.016 107.051 66.736 107.051 72.08C107.051 77.456 105.931 82.208 103.691 86.336C101.483 90.432 98.3948 93.648 94.4268 95.984C90.4908 98.288 85.9308 99.44 80.7468 99.44ZM80.7468 87.248C84.9388 87.248 88.0588 85.84 90.1068 83.024C92.1868 80.176 93.2268 76.528 93.2268 72.08C93.2268 67.472 92.1708 63.792 90.0588 61.04C87.9788 58.288 84.8748 56.912 80.7468 56.912C77.8988 56.912 75.5627 57.552 73.7388 58.832C71.9148 60.112 70.5547 61.888 69.6588 64.16C68.7948 66.432 68.3628 69.072 68.3628 72.08C68.3628 76.72 69.4028 80.416 71.4828 83.168C73.5948 85.888 76.6828 87.248 80.7468 87.248ZM141.414 98V73.52C141.414 72.336 141.35 70.832 141.222 69.008C141.094 67.152 140.694 65.296 140.022 63.44C139.35 61.584 138.246 60.032 136.71 58.784C135.206 57.536 133.062 56.912 130.278 56.912C129.158 56.912 127.958 57.088 126.678 57.44C125.398 57.792 124.198 58.48 123.078 59.504C121.958 60.496 121.03 61.968 120.294 63.92C119.59 65.872 119.238 68.464 119.238 71.696L111.75 68.144C111.75 64.048 112.582 60.208 114.246 56.624C115.91 53.04 118.406 50.144 121.734 47.936C125.094 45.728 129.318 44.624 134.406 44.624C138.47 44.624 141.782 45.312 144.342 46.688C146.902 48.064 148.886 49.808 150.294 51.92C151.734 54.032 152.758 56.24 153.366 58.544C153.974 60.816 154.342 62.896 154.47 64.784C154.598 66.672 154.662 68.048 154.662 68.912V98H141.414ZM105.99 98V28.88H117.606V64.4H119.238V98H105.99ZM190.926 98V73.52C190.926 72.336 190.862 70.832 190.734 69.008C190.606 67.152 190.206 65.296 189.534 63.44C188.862 61.584 187.758 60.032 186.222 58.784C184.718 57.536 182.574 56.912 179.79 56.912C178.67 56.912 177.47 57.088 176.19 57.44C174.91 57.792 173.71 58.48 172.59 59.504C171.47 60.496 170.542 61.968 169.806 63.92C169.102 65.872 168.75 68.464 168.75 71.696L161.262 68.144C161.262 64.048 162.094 60.208 163.758 56.624C165.422 53.04 167.918 50.144 171.246 47.936C174.606 45.728 178.83 44.624 183.918 44.624C187.982 44.624 191.294 45.312 193.854 46.688C196.414 48.064 198.398 49.808 199.806 51.92C201.246 54.032 202.27 56.24 202.878 58.544C203.486 60.816 203.854 62.896 203.982 64.784C204.11 66.672 204.174 68.048 204.174 68.912V98H190.926ZM155.502 98V46.16H167.118V63.344H168.75V98H155.502ZM221.466 98V28.88H234.522V85.808H264.282V98H221.466ZM261.884 38.96V27.44H274.94V38.96H261.884ZM261.884 98V46.16H274.94V98H261.884ZM313.138 98V73.52C313.138 72.336 313.074 70.832 312.946 69.008C312.818 67.152 312.418 65.296 311.746 63.44C311.074 61.584 309.97 60.032 308.434 58.784C306.93 57.536 304.786 56.912 302.002 56.912C300.882 56.912 299.682 57.088 298.402 57.44C297.122 57.792 295.922 58.48 294.802 59.504C293.682 60.496 292.754 61.968 292.018 63.92C291.314 65.872 290.962 68.464 290.962 71.696L283.474 68.144C283.474 64.048 284.306 60.208 285.97 56.624C287.634 53.04 290.13 50.144 293.458 47.936C296.818 45.728 301.042 44.624 306.13 44.624C310.194 44.624 313.506 45.312 316.066 46.688C318.626 48.064 320.61 49.808 322.018 51.92C323.458 54.032 324.482 56.24 325.09 58.544C325.698 60.816 326.066 62.896 326.194 64.784C326.322 66.672 326.386 68.048 326.386 68.912V98H313.138ZM277.714 98V46.16H289.33V63.344H290.962V98H277.714ZM347.408 99.44C342.64 99.44 338.464 98.24 334.88 95.84C331.296 93.44 328.496 90.176 326.48 86.048C324.496 81.92 323.504 77.264 323.504 72.08C323.504 66.8 324.512 62.112 326.528 58.016C328.576 53.888 331.44 50.64 335.12 48.272C338.8 45.904 343.12 44.72 348.08 44.72C353.008 44.72 357.152 45.92 360.512 48.32C363.872 50.72 366.416 53.984 368.144 58.112C369.872 62.24 370.736 66.896 370.736 72.08C370.736 77.264 369.856 81.92 368.096 86.048C366.368 90.176 363.776 93.44 360.32 95.84C356.864 98.24 352.56 99.44 347.408 99.44ZM349.52 87.824C352.432 87.824 354.752 87.168 356.48 85.856C358.24 84.544 359.504 82.704 360.272 80.336C361.04 77.968 361.424 75.216 361.424 72.08C361.424 68.944 361.04 66.192 360.272 63.824C359.504 61.456 358.272 59.616 356.576 58.304C354.912 56.992 352.72 56.336 350 56.336C347.088 56.336 344.688 57.056 342.8 58.496C340.944 59.904 339.568 61.808 338.672 64.208C337.776 66.576 337.328 69.2 337.328 72.08C337.328 74.992 337.76 77.648 338.624 80.048C339.488 82.416 340.816 84.304 342.608 85.712C344.4 87.12 346.704 87.824 349.52 87.824ZM361.424 98V62.48H359.792V28.88H372.944V98H361.424ZM398.192 99.44C392.976 99.44 388.4 98.272 384.464 95.936C380.528 93.6 377.456 90.384 375.248 86.288C373.072 82.16 371.984 77.424 371.984 72.08C371.984 66.672 373.104 61.92 375.344 57.824C377.584 53.696 380.672 50.48 384.608 48.176C388.544 45.872 393.072 44.72 398.192 44.72C403.408 44.72 407.984 45.888 411.92 48.224C415.888 50.56 418.976 53.792 421.184 57.92C423.392 62.016 424.496 66.736 424.496 72.08C424.496 77.456 423.376 82.208 421.136 86.336C418.928 90.432 415.84 93.648 411.872 95.984C407.936 98.288 403.376 99.44 398.192 99.44ZM398.192 87.248C402.384 87.248 405.504 85.84 407.552 83.024C409.632 80.176 410.672 76.528 410.672 72.08C410.672 67.472 409.616 63.792 407.504 61.04C405.424 58.288 402.32 56.912 398.192 56.912C395.344 56.912 393.008 57.552 391.184 58.832C389.36 60.112 388 61.888 387.104 64.16C386.24 66.432 385.808 69.072 385.808 72.08C385.808 76.72 386.848 80.416 388.928 83.168C391.04 85.888 394.128 87.248 398.192 87.248ZM458.859 98V73.52C458.859 72.336 458.795 70.832 458.667 69.008C458.539 67.152 458.139 65.296 457.467 63.44C456.795 61.584 455.691 60.032 454.155 58.784C452.651 57.536 450.507 56.912 447.723 56.912C446.603 56.912 445.403 57.088 444.123 57.44C442.843 57.792 441.643 58.48 440.523 59.504C439.403 60.496 438.475 61.968 437.739 63.92C437.035 65.872 436.683 68.464 436.683 71.696L429.195 68.144C429.195 64.048 430.027 60.208 431.691 56.624C433.355 53.04 435.851 50.144 439.179 47.936C442.539 45.728 446.763 44.624 451.851 44.624C455.915 44.624 459.227 45.312 461.787 46.688C464.347 48.064 466.331 49.808 467.739 51.92C469.179 54.032 470.203 56.24 470.811 58.544C471.419 60.816 471.787 62.896 471.915 64.784C472.043 66.672 472.107 68.048 472.107 68.912V98H458.859ZM423.435 98V46.16H435.051V63.344H436.683V98H423.435Z" fill="#6C348D"/>
</mask>
<g mask="url(#mask0_1_2)">
<g filter="url(#filter3_d_1_2)">
<line x1="13" y1="97" x2="512" y2="97" stroke="white" stroke-width="10"/>
</g>
</g>
</g>
<defs>
<filter id="filter0_i_1_2" x="486" y="78" width="10" height="14" filterUnits="userSpaceOnUse" color-interpolation-filters="sRGB">
<feFlood flood-opacity="0" result="BackgroundImageFix"/>
<feBlend mode="normal" in="SourceGraphic" in2="BackgroundImageFix" result="shape"/>
<feColorMatrix in="SourceAlpha" type="matrix" values="0 0 0 0 0 0 0 0 0 0 0 0 0 0 0 0 0 0 127 0" result="hardAlpha"/>
<feOffset dy="4"/>
<feGaussianBlur stdDeviation="2"/>
<feComposite in2="hardAlpha" operator="arithmetic" k2="-1" k3="1"/>
<feColorMatrix type="matrix" values="0 0 0 0 0 0 0 0 0 0 0 0 0 0 0 0 0 0 0.25 0"/>
<feBlend mode="normal" in2="shape" result="effect1_innerShadow_1_2"/>
</filter>
<filter id="filter1_i_1_2" x="13" y="92" width="478" height="14" filterUnits="userSpaceOnUse" color-interpolation-filters="sRGB">
<feFlood flood-opacity="0" result="BackgroundImageFix"/>
<feBlend mode="normal" in="SourceGraphic" in2="BackgroundImageFix" result="shape"/>
<feColorMatrix in="SourceAlpha" type="matrix" values="0 0 0 0 0 0 0 0 0 0 0 0 0 0 0 0 0 0 127 0" result="hardAlpha"/>
<feOffset dy="4"/>
<feGaussianBlur stdDeviation="2"/>
<feComposite in2="hardAlpha" operator="arithmetic" k2="-1" k3="1"/>
<feColorMatrix type="matrix" values="0 0 0 0 0 0 0 0 0 0 0 0 0 0 0 0 0 0 0.25 0"/>
<feBlend mode="normal" in2="shape" result="effect1_innerShadow_1_2"/>
</filter>
<filter id="filter2_i_1_2" x="13" y="27.44" width="459.107" height="76" filterUnits="userSpaceOnUse" color-interpolation-filters="sRGB">
<feFlood flood-opacity="0" result="BackgroundImageFix"/>
<feBlend mode="normal" in="SourceGraphic" in2="BackgroundImageFix" result="shape"/>
<feColorMatrix in="SourceAlpha" type="matrix" values="0 0 0 0 0 0 0 0 0 0 0 0 0 0 0 0 0 0 127 0" result="hardAlpha"/>
<feOffset dy="4"/>
<feGaussianBlur stdDeviation="2"/>
<feComposite in2="hardAlpha" operator="arithmetic" k2="-1" k3="1"/>
<feColorMatrix type="matrix" values="0 0 0 0 0 0 0 0 0 0 0 0 0 0 0 0 0 0 0.25 0"/>
<feBlend mode="normal" in2="shape" result="effect1_innerShadow_1_2"/>
</filter>
<filter id="filter3_d_1_2" x="9" y="92" width="507" height="18" filterUnits="userSpaceOnUse" color-interpolation-filters="sRGB">
<feFlood flood-opacity="0" result="BackgroundImageFix"/>
<feColorMatrix in="SourceAlpha" type="matrix" values="0 0 0 0 0 0 0 0 0 0 0 0 0 0 0 0 0 0 127 0" result="hardAlpha"/>
<feOffset dy="4"/>
<feGaussianBlur stdDeviation="2"/>
<feComposite in2="hardAlpha" operator="out"/>
<feColorMatrix type="matrix" values="0 0 0 0 0 0 0 0 0 0 0 0 0 0 0 0 0 0 0.25 0"/>
<feBlend mode="normal" in2="BackgroundImageFix" result="effect1_dropShadow_1_2"/>
<feBlend mode="normal" in="SourceGraphic" in2="effect1_dropShadow_1_2" result="shape"/>
</filter>
<clipPath id="clip0_1_2">
<rect width="517" height="127" fill="white"/>
</clipPath>
</defs>
</svg>
